<svg width="1217" height="465" viewBox="0 0 1217 465" fill="none" xmlns="http://www.w3.org/2000/svg">
<path d="M457.259 356.471C457.26 356.469 457.259 356.466 457.257 356.465C455.718 355.618 453.902 355.417 452.212 355.906C450.522 356.398 449.096 357.542 448.25 359.085C432.982 386.939 410.51 410.18 383.182 426.377C355.857 442.571 324.68 451.127 292.914 451.146C287.647 451.146 282.281 450.88 277.013 450.417C232.789 446.743 191.574 426.532 161.593 393.817C131.613 361.105 115.066 318.294 115.249 273.916C115.249 268.648 115.48 263.283 115.943 258.113V257.551C115.943 257.551 115.944 257.55 115.945 257.551V257.551C115.945 257.551 115.946 257.551 115.946 257.55C116.118 253.999 113.458 250.943 109.917 250.627C108.143 250.481 106.384 251.055 105.038 252.22C103.692 253.386 102.87 255.046 102.761 256.823C102.263 262.519 102 268.252 102 273.916C102.067 321.527 119.939 367.392 152.103 402.501C184.265 437.605 228.396 459.412 275.818 463.64C281.482 464.137 287.247 464.401 292.911 464.401H292.914C327.034 464.361 360.52 455.159 389.87 437.76C419.222 420.36 443.365 395.398 459.774 365.485C461.561 362.302 460.438 358.276 457.261 356.477C457.259 356.476 457.258 356.473 457.259 356.471V356.471Z" fill="url(#paint0_linear_2322_54161)" fill-opacity="0.4"/>
<g filter="url(#filter0_bd_2322_54161)">
<path d="M127.947 191.228C127.947 191.228 127.947 191.228 127.947 191.228C129.488 192.076 131.304 192.278 132.994 191.789C134.686 191.297 136.109 190.153 136.955 188.61C152.199 160.668 174.684 137.346 202.052 121.094C229.42 104.842 260.661 96.2618 292.491 96.251C297.758 96.251 303.124 96.4824 308.392 96.9453C352.616 100.63 393.831 120.846 423.812 153.567C453.792 186.287 470.339 229.103 470.153 273.481C470.153 278.749 469.887 284.083 469.424 289.351V290.112C469.097 293.751 471.781 296.967 475.421 297.3H476.051H476.049C479.489 297.314 482.364 294.696 482.676 291.272V290.511C483.173 284.847 483.437 279.117 483.437 273.45C483.373 225.828 465.495 179.953 433.314 144.851C401.137 109.747 356.988 87.9562 309.552 83.7609C303.888 83.2661 298.158 83 292.493 83C258.251 83.0053 224.642 92.2366 195.203 109.726C165.766 127.216 141.583 152.314 125.197 182.382C123.558 185.588 124.779 189.514 127.947 191.227C127.948 191.227 127.948 191.228 127.947 191.228V191.228Z" fill="url(#paint1_linear_2322_54161)" fill-opacity="0.4" shape-rendering="crispEdges"/>
</g>
<path d="M471.226 309.508C466.666 309.5 462.287 311.304 459.055 314.525C455.825 317.744 454.005 322.118 454 326.681C453.995 331.241 455.801 335.62 459.026 338.847C462.247 342.077 466.621 343.891 471.184 343.896C475.744 343.899 480.12 342.087 483.347 338.863C486.574 335.638 488.386 331.265 488.386 326.702C488.386 322.148 486.579 317.779 483.363 314.558C480.146 311.333 475.781 309.519 471.226 309.508L471.226 309.508Z" fill="white"/>
<path d="M136.89 221.766C136.89 231.263 129.191 238.96 119.696 238.96C110.201 238.96 102.502 231.263 102.502 221.766C102.502 212.271 110.201 204.574 119.696 204.574C129.191 204.574 136.89 212.271 136.89 221.766Z" fill="white"/>
<g filter="url(#filter1_d_2322_54161)">
<circle cx="293.178" cy="276.178" r="68.1776" fill="white"/>
</g>
<path d="M608.95 344H587.5V207.5H608.95V265.025H676.225V207.5H697.675V344H676.225V284.525H608.95V344ZM773.656 345.95C764.686 345.95 756.431 343.805 748.891 339.515C741.481 335.225 735.631 329.375 731.341 321.965C727.051 314.425 724.906 306.17 724.906 297.2C724.906 288.23 727.051 280.04 731.341 272.63C735.631 265.22 741.416 259.37 748.696 255.08C755.976 250.66 763.971 248.45 772.681 248.45C781.391 248.45 789.191 250.465 796.081 254.495C803.101 258.395 808.561 263.855 812.461 270.875C816.491 277.765 818.506 285.565 818.506 294.275C818.506 297.785 818.181 301.035 817.531 304.025H745.381C746.421 310.525 749.671 316.05 755.131 320.6C760.591 325.15 767.091 327.425 774.631 327.425C784.121 327.425 792.896 323.655 800.956 316.115L813.631 328.595C809.991 333.145 804.661 337.175 797.641 340.685C790.751 344.195 782.756 345.95 773.656 345.95ZM798.226 288.425C796.796 281.535 793.871 276.075 789.451 272.045C785.031 268.015 779.441 266 772.681 266C765.401 266 759.421 268.015 754.741 272.045C750.191 276.075 746.941 281.535 744.991 288.425H798.226ZM859.396 344H839.896V207.5H859.396V344ZM908.146 344H888.646V250.4H908.146V344ZM898.396 232.85C895.406 232.85 892.676 231.745 890.206 229.535C887.866 227.195 886.696 224.4 886.696 221.15C886.696 217.9 887.866 215.17 890.206 212.96C892.676 210.62 895.406 209.45 898.396 209.45C901.386 209.45 904.051 210.62 906.391 212.96C908.861 215.17 910.096 217.9 910.096 221.15C910.096 224.4 908.861 227.195 906.391 229.535C904.051 231.745 901.386 232.85 898.396 232.85ZM972.496 345.95C965.346 345.95 958.976 344.325 953.386 341.075C947.796 337.695 943.376 332.95 940.126 326.84C937.006 320.6 935.446 313.32 935.446 305V250.4H954.946V305C954.946 311.76 956.896 317.22 960.796 321.38C964.826 325.41 970.026 327.425 976.396 327.425C983.806 327.425 989.851 325.02 994.531 320.21C999.341 315.27 1001.75 308.9 1001.75 301.1V250.4H1021.25V344H1001.75V330.74H1001.55C999.081 334.64 995.181 338.15 989.851 341.27C984.651 344.39 978.866 345.95 972.496 345.95ZM1048.58 344V250.4H1068.08V263.66H1068.28C1070.23 259.76 1073.61 256.25 1078.42 253.13C1083.36 250.01 1089.01 248.45 1095.38 248.45C1102.14 248.45 1108.12 250.075 1113.32 253.325C1118.52 256.445 1122.23 259.955 1124.44 263.855H1124.83C1127.04 259.955 1130.94 256.445 1136.53 253.325C1142.25 250.075 1149.01 248.45 1156.81 248.45C1163.05 248.45 1168.77 250.14 1173.97 253.52C1179.17 256.77 1183.26 261.45 1186.25 267.56C1189.37 273.54 1190.93 280.495 1190.93 288.425V344H1171.43V288.425C1171.43 281.795 1169.55 276.595 1165.78 272.825C1162.14 268.925 1157.52 266.975 1151.93 266.975C1145.43 266.975 1140.04 269.315 1135.75 273.995C1131.59 278.545 1129.51 284.655 1129.51 292.325V344H1110.01V288.425C1110.01 281.795 1108.12 276.595 1104.35 272.825C1100.71 268.925 1096.1 266.975 1090.51 266.975C1084.01 266.975 1078.61 269.315 1074.32 273.995C1070.16 278.545 1068.08 284.655 1068.08 292.325V344H1048.58Z" fill="white"/>
<defs>
<filter id="filter0_bd_2322_54161" x="0.510391" y="0.360443" width="606.885" height="462.219" filterUnits="userSpaceOnUse" color-interpolation-filters="sRGB">
<feFlood flood-opacity="0" result="BackgroundImageFix"/>
<feGaussianBlur in="BackgroundImageFix" stdDeviation="30.9898"/>
<feComposite in2="SourceAlpha" operator="in" result="effect1_backgroundBlur_2322_54161"/>
<feColorMatrix in="SourceAlpha" type="matrix" values="0 0 0 0 0 0 0 0 0 0 0 0 0 0 0 0 0 0 127 0" result="hardAlpha"/>
<feOffset dy="41.3198"/>
<feGaussianBlur stdDeviation="61.9797"/>
<feComposite in2="hardAlpha" operator="out"/>
<feColorMatrix type="matrix" values="0 0 0 0 0 0 0 0 0 0 0 0 0 0 0 0 0 0 0.3 0"/>
<feBlend mode="normal" in2="effect1_backgroundBlur_2322_54161" result="effect2_dropShadow_2322_54161"/>
<feBlend mode="normal" in="SourceGraphic" in2="effect2_dropShadow_2322_54161" result="shape"/>
</filter>
<filter id="filter1_d_2322_54161" x="149.68" y="132.68" width="286.995" height="286.995" filterUnits="userSpaceOnUse" color-interpolation-filters="sRGB">
<feFlood flood-opacity="0" result="BackgroundImageFix"/>
<feColorMatrix in="SourceAlpha" type="matrix" values="0 0 0 0 0 0 0 0 0 0 0 0 0 0 0 0 0 0 127 0" result="hardAlpha"/>
<feMorphology radius="12" operator="dilate" in="SourceAlpha" result="effect1_dropShadow_2322_54161"/>
<feOffset/>
<feGaussianBlur stdDeviation="31.66"/>
<feComposite in2="hardAlpha" operator="out"/>
<feColorMatrix type="matrix" values="0 0 0 0 1 0 0 0 0 1 0 0 0 0 1 0 0 0 0.4 0"/>
<feBlend mode="normal" in2="BackgroundImageFix" result="effect1_dropShadow_2322_54161"/>
<feBlend mode="normal" in="SourceGraphic" in2="effect1_dropShadow_2322_54161" result="shape"/>
</filter>
<linearGradient id="paint0_linear_2322_54161" x1="83" y1="251" x2="474.969" y2="368.103" gradientUnits="userSpaceOnUse">
<stop stop-color="#1095C1"/>
<stop offset="1" stop-color="#1095C1" stop-opacity="0"/>
</linearGradient>
<linearGradient id="paint1_linear_2322_54161" x1="473" y1="328" x2="124" y2="200" gradientUnits="userSpaceOnUse">
<stop stop-color="#1095C1"/>
<stop offset="1" stop-color="#1095C1" stop-opacity="0"/>
</linearGradient>
</defs>
</svg>
