<svg width="1115" height="382" viewBox="0 0 1115 382" fill="none" xmlns="http://www.w3.org/2000/svg">
<g clip-path="url(#clip0_2322_54161)">
<path d="M355.259 273.471C355.26 273.469 355.259 273.466 355.257 273.465C353.718 272.618 351.902 272.417 350.212 272.906C348.522 273.398 347.096 274.542 346.25 276.085C330.982 303.939 308.51 327.18 281.182 343.377C253.857 359.571 222.68 368.127 190.914 368.146C185.647 368.146 180.281 367.88 175.013 367.417C130.789 363.743 89.5735 343.532 59.5932 310.817C29.6128 278.105 13.0657 235.294 13.2489 190.916C13.2489 185.648 13.4804 180.283 13.9432 175.113V174.551C13.9432 174.551 13.9441 174.55 13.9446 174.551V174.551C13.9451 174.551 13.946 174.551 13.946 174.55C14.1179 170.999 11.4579 167.943 7.91742 167.627C6.14291 167.481 4.38441 168.055 3.03822 169.22C1.69203 170.386 0.869991 172.046 0.760885 173.823C0.263389 179.519 0 185.252 0 190.916C0.0665098 238.527 17.9392 284.392 50.103 319.501C82.2648 354.605 126.396 376.412 173.818 380.64C179.482 381.137 185.247 381.401 190.911 381.401H190.914C225.034 381.361 258.52 372.159 287.87 354.76C317.222 337.36 341.365 312.398 357.774 282.485C359.561 279.302 358.438 275.276 355.261 273.477C355.259 273.476 355.258 273.473 355.259 273.471V273.471Z" fill="url(#paint0_linear_2322_54161)" fill-opacity="0.4"/>
<g filter="url(#filter0_bd_2322_54161)">
<path d="M25.9474 108.228C25.9472 108.228 25.9472 108.228 25.9473 108.228C27.4876 109.076 29.3045 109.278 30.9937 108.789C32.6857 108.297 34.109 107.153 34.955 105.61C50.1992 77.6679 72.6845 54.3462 100.052 38.0941C127.42 21.8419 158.661 13.2618 190.491 13.251C195.758 13.251 201.124 13.4824 206.392 13.9453C250.616 17.63 291.831 37.8465 321.812 70.5668C351.792 103.287 368.339 146.103 368.153 190.481C368.153 195.749 367.887 201.083 367.424 206.351V207.112C367.097 210.751 369.781 213.967 373.421 214.3H374.051H374.049C377.489 214.314 380.364 211.696 380.676 208.272V207.511C381.173 201.847 381.437 196.117 381.437 190.45C381.373 142.828 363.495 96.9534 331.314 61.8515C299.137 26.7475 254.988 4.95623 207.552 0.760883C201.888 0.26605 196.158 0 190.493 0C156.251 0.0053208 122.642 9.23657 93.2035 26.7262C63.7659 44.2159 39.5835 69.3137 23.1971 99.382C21.5584 102.588 22.7793 106.514 25.9475 108.227C25.9476 108.227 25.9476 108.228 25.9474 108.228V108.228Z" fill="url(#paint1_linear_2322_54161)" fill-opacity="0.4" shape-rendering="crispEdges"/>
</g>
<path d="M369.226 226.508C364.666 226.5 360.287 228.304 357.055 231.525C353.825 234.744 352.005 239.118 352 243.681C351.995 248.241 353.801 252.62 357.026 255.847C360.247 259.077 364.621 260.891 369.184 260.896C373.744 260.899 378.12 259.087 381.347 255.863C384.574 252.638 386.386 248.265 386.386 243.702C386.386 239.148 384.579 234.779 381.363 231.558C378.146 228.333 373.781 226.519 369.226 226.508L369.226 226.508Z" fill="white"/>
<path d="M34.8901 138.766C34.8901 148.263 27.1907 155.96 17.6961 155.96C8.20136 155.96 0.501953 148.263 0.501953 138.766C0.501953 129.271 8.20136 121.574 17.6961 121.574C27.1907 121.574 34.8901 129.271 34.8901 138.766Z" fill="white"/>
<g filter="url(#filter1_d_2322_54161)">
<circle cx="191.178" cy="193.178" r="68.1776" fill="white"/>
</g>
</g>
<path d="M506.95 261H485.5V124.5H506.95V182.025H574.225V124.5H595.675V261H574.225V201.525H506.95V261ZM671.656 262.95C662.686 262.95 654.431 260.805 646.891 256.515C639.481 252.225 633.631 246.375 629.341 238.965C625.051 231.425 622.906 223.17 622.906 214.2C622.906 205.23 625.051 197.04 629.341 189.63C633.631 182.22 639.416 176.37 646.696 172.08C653.976 167.66 661.971 165.45 670.681 165.45C679.391 165.45 687.191 167.465 694.081 171.495C701.101 175.395 706.561 180.855 710.461 187.875C714.491 194.765 716.506 202.565 716.506 211.275C716.506 214.785 716.181 218.035 715.531 221.025H643.381C644.421 227.525 647.671 233.05 653.131 237.6C658.591 242.15 665.091 244.425 672.631 244.425C682.121 244.425 690.896 240.655 698.956 233.115L711.631 245.595C707.991 250.145 702.661 254.175 695.641 257.685C688.751 261.195 680.756 262.95 671.656 262.95ZM696.226 205.425C694.796 198.535 691.871 193.075 687.451 189.045C683.031 185.015 677.441 183 670.681 183C663.401 183 657.421 185.015 652.741 189.045C648.191 193.075 644.941 198.535 642.991 205.425H696.226ZM757.396 261H737.896V124.5H757.396V261ZM806.146 261H786.646V167.4H806.146V261ZM796.396 149.85C793.406 149.85 790.676 148.745 788.206 146.535C785.866 144.195 784.696 141.4 784.696 138.15C784.696 134.9 785.866 132.17 788.206 129.96C790.676 127.62 793.406 126.45 796.396 126.45C799.386 126.45 802.051 127.62 804.391 129.96C806.861 132.17 808.096 134.9 808.096 138.15C808.096 141.4 806.861 144.195 804.391 146.535C802.051 148.745 799.386 149.85 796.396 149.85ZM870.496 262.95C863.346 262.95 856.976 261.325 851.386 258.075C845.796 254.695 841.376 249.95 838.126 243.84C835.006 237.6 833.446 230.32 833.446 222V167.4H852.946V222C852.946 228.76 854.896 234.22 858.796 238.38C862.826 242.41 868.026 244.425 874.396 244.425C881.806 244.425 887.851 242.02 892.531 237.21C897.341 232.27 899.746 225.9 899.746 218.1V167.4H919.246V261H899.746V247.74H899.551C897.081 251.64 893.181 255.15 887.851 258.27C882.651 261.39 876.866 262.95 870.496 262.95ZM946.584 261V167.4H966.084V180.66H966.279C968.229 176.76 971.609 173.25 976.419 170.13C981.359 167.01 987.014 165.45 993.384 165.45C1000.14 165.45 1006.12 167.075 1011.32 170.325C1016.52 173.445 1020.23 176.955 1022.44 180.855H1022.83C1025.04 176.955 1028.94 173.445 1034.53 170.325C1040.25 167.075 1047.01 165.45 1054.81 165.45C1061.05 165.45 1066.77 167.14 1071.97 170.52C1077.17 173.77 1081.26 178.45 1084.25 184.56C1087.37 190.54 1088.93 197.495 1088.93 205.425V261H1069.43V205.425C1069.43 198.795 1067.55 193.595 1063.78 189.825C1060.14 185.925 1055.52 183.975 1049.93 183.975C1043.43 183.975 1038.04 186.315 1033.75 190.995C1029.59 195.545 1027.51 201.655 1027.51 209.325V261H1008.01V205.425C1008.01 198.795 1006.12 193.595 1002.35 189.825C998.714 185.925 994.099 183.975 988.509 183.975C982.009 183.975 976.614 186.315 972.324 190.995C968.164 195.545 966.084 201.655 966.084 209.325V261H946.584Z" fill="white"/>
<defs>
<filter id="filter0_bd_2322_54161" x="-101.49" y="-82.6396" width="606.885" height="462.219" filterUnits="userSpaceOnUse" color-interpolation-filters="sRGB">
<feFlood flood-opacity="0" result="BackgroundImageFix"/>
<feGaussianBlur in="BackgroundImageFix" stdDeviation="30.9898"/>
<feComposite in2="SourceAlpha" operator="in" result="effect1_backgroundBlur_2322_54161"/>
<feColorMatrix in="SourceAlpha" type="matrix" values="0 0 0 0 0 0 0 0 0 0 0 0 0 0 0 0 0 0 127 0" result="hardAlpha"/>
<feOffset dy="41.3198"/>
<feGaussianBlur stdDeviation="61.9797"/>
<feComposite in2="hardAlpha" operator="out"/>
<feColorMatrix type="matrix" values="0 0 0 0 0 0 0 0 0 0 0 0 0 0 0 0 0 0 0.3 0"/>
<feBlend mode="normal" in2="effect1_backgroundBlur_2322_54161" result="effect2_dropShadow_2322_54161"/>
<feBlend mode="normal" in="SourceGraphic" in2="effect2_dropShadow_2322_54161" result="shape"/>
</filter>
<filter id="filter1_d_2322_54161" x="47.68" y="49.68" width="286.995" height="286.995" filterUnits="userSpaceOnUse" color-interpolation-filters="sRGB">
<feFlood flood-opacity="0" result="BackgroundImageFix"/>
<feColorMatrix in="SourceAlpha" type="matrix" values="0 0 0 0 0 0 0 0 0 0 0 0 0 0 0 0 0 0 127 0" result="hardAlpha"/>
<feMorphology radius="12" operator="dilate" in="SourceAlpha" result="effect1_dropShadow_2322_54161"/>
<feOffset/>
<feGaussianBlur stdDeviation="31.66"/>
<feComposite in2="hardAlpha" operator="out"/>
<feColorMatrix type="matrix" values="0 0 0 0 1 0 0 0 0 1 0 0 0 0 1 0 0 0 0.4 0"/>
<feBlend mode="normal" in2="BackgroundImageFix" result="effect1_dropShadow_2322_54161"/>
<feBlend mode="normal" in="SourceGraphic" in2="effect1_dropShadow_2322_54161" result="shape"/>
</filter>
<linearGradient id="paint0_linear_2322_54161" x1="-19" y1="168" x2="372.969" y2="285.103" gradientUnits="userSpaceOnUse">
<stop stop-color="#1095C1"/>
<stop offset="1" stop-color="#1095C1" stop-opacity="0"/>
</linearGradient>
<linearGradient id="paint1_linear_2322_54161" x1="371" y1="245" x2="22" y2="117" gradientUnits="userSpaceOnUse">
<stop stop-color="#1095C1"/>
<stop offset="1" stop-color="#1095C1" stop-opacity="0"/>
</linearGradient>
<clipPath id="clip0_2322_54161">
<rect width="386.386" height="381.4" fill="white"/>
</clipPath>
</defs>
</svg>
